/* XPM */
static char * maximize_prelight_xpm[] = {
"24 24 3 1",
" 	c None",
".	c #55FF1A",
"+	c #464346",
"........................",
"........................",
"++++++++++++++++++++++++",
"++++++++++++++++++++++++",
"++++++++++++++++++++++++",
"++++++++++++++++++++++++",
"++++++++++++++++++++++++",
"++++++++++++++++++++++++",
"++++++++++++....++++++++",
"+++++++++++++...++++++++",
"++++++++++++....++++++++",
"+++++++++++...+.++++++++",
"++++++++.+...+++++++++++",
"++++++++....++++++++++++",
"++++++++...+++++++++++++",
"++++++++....++++++++++++",
"++++++++++++++++++++++++",
"++++++++++++++++++++++++",
"++++++++++++++++++++++++",
"++++++++++++++++++++++++",
"++++++++++++++++++++++++",
"++++++++++++++++++++++++",
"++++++++++++++++++++++++",
"++++++++++++++++++++++++"};
