/* XPM */
static char * title_3_active_xpm[] = {
"2 26 4 1",
" 	c None",
".	c #393739",
"+	c #464346",
"@	c #FF6519",
"..",
"++",
"++",
"++",
"++",
"++",
"++",
"++",
"++",
"++",
"++",
"++",
"++",
"++",
"++",
"++",
"++",
"++",
"++",
"++",
"++",
"++",
"++",
"++",
"++",
"@@"};
