/* XPM */
static char * top_right_active_xpm[] = {
"4 26 5 1",
" 	c None",
".	c #3B383B",
"+	c #474447",
"@	c #464346",
"#	c #FF6519",
"..  ",
"++. ",
"+++.",
"+++.",
"+++.",
"++@.",
"++@.",
"++@.",
"++@.",
"++@.",
"++@.",
"++@.",
"++@.",
"++@.",
"++@.",
"++@.",
"++@.",
"++@.",
"++@.",
"++@.",
"++@.",
"++@.",
"++@.",
"++@.",
"++@.",
"####"};
