/* XPM */
static char * top_right_inactive_xpm[] = {
"4 26 4 1",
" 	c None",
".	c #3B383B",
"+	c #474447",
"@	c #464346",
".   ",
"+.. ",
"++. ",
"++..",
"++@.",
"++@.",
"++@.",
"++@.",
"++@.",
"++@.",
"++@.",
"++@.",
"++@.",
"++@.",
"++@.",
"++@.",
"++@.",
"++@.",
"++@.",
"++@.",
"++@.",
"++@.",
"++@.",
"++@.",
"++@.",
"++@."};
